<svg class="svg-icon" style="width: 1em; height: 1em;vertical-align: middle;fill: currentColor;overflow: hidden;" viewBox="0 0 1024 1024" version="1.1" xmlns="http://www.w3.org/2000/svg"><path d="M512.001535 61.372789c-248.877277 0-450.629257 201.727421-450.629257 450.625164 0 248.868067 201.75198 450.630281 450.629257 450.630281 248.873184 0 450.625164-201.762213 450.625164-450.630281C962.621583 263.095094 760.874719 61.372789 512.001535 61.372789L512.001535 61.372789zM512.001535 926.574087c-228.965785 0-414.576133-185.631838-414.576133-414.574087 0-228.970902 185.610348-414.574087 414.576133-414.574087 228.961692 0 414.569994 185.603185 414.569994 414.574087C926.571529 740.942249 740.963227 926.574087 512.001535 926.574087L512.001535 926.574087zM489.511311 326.023308M259.765767 503.967046c0-126.08258 40.86471-186.881294 107.145276-186.881294 65.782216 0 106.646925 60.798714 106.646925 186.881294 0 127.576607-40.86471 189.373045-106.646925 189.373045C300.630477 693.339068 259.765767 631.54263 259.765767 503.967046zM444.652638 503.967046c0-108.142999-30.897707-162.462139-77.742619-162.462139-47.343261 0-78.240969 54.31914-78.240969 162.462139 0 110.134353 30.897707 164.952866 78.240969 164.952866C413.755953 668.919912 444.652638 614.100376 444.652638 503.967046zM545.812595 661.444661l82.22777 0 0-295.520597-63.291488 0 0-19.436678c29.402657-4.982478 51.828412-12.957103 69.270666-22.923082l23.422456 0 0 337.88138 75.749218 0 0 25.415856L545.812595 686.86154 545.812595 661.444661z"  /></svg>